<svg xmlns="http://www.w3.org/2000/svg" width="524" height="516" viewBox="0 0 524 516" version="1.1"><path d="M 293.750 10.740 C 297.188 10.936, 302.813 10.936, 306.250 10.740 C 309.688 10.545, 306.875 10.385, 300 10.385 C 293.125 10.385, 290.313 10.545, 293.750 10.740 M 348.768 62.078 L 345.690 65.156 346.345 83.238 C 346.705 93.184, 347 109.779, 347 120.116 L 347 138.912 363.997 138.706 L 380.993 138.500 380.997 102.700 C 381 63.866, 380.839 62.615, 375.528 60.195 C 374.025 59.510, 368.410 59, 362.376 59 C 351.950 59, 351.816 59.030, 348.768 62.078 M 289.400 72.428 C 287.694 73.170, 285.931 74.615, 285.482 75.639 C 284.326 78.268, 283.643 114.122, 284.489 127.672 L 285.197 139 301.599 139 L 318 139 318 107.539 C 318 70.406, 318.745 72.695, 306.315 71.644 C 295.726 70.749, 292.963 70.877, 289.400 72.428 M 225.628 88.469 L 222.964 90.938 223.232 114.719 L 223.500 138.500 239.947 138.219 C 248.993 138.065, 256.643 137.691, 256.947 137.388 C 257.251 137.085, 257.643 126.819, 257.817 114.575 L 258.134 92.313 255.478 89.157 L 252.822 86 240.557 86 C 228.901 86, 228.160 86.123, 225.628 88.469 M 167.255 99.073 C 161.276 100.882, 160.611 103.211, 161.335 119.808 C 161.687 127.889, 162.255 135.500, 162.597 136.723 C 163.210 138.913, 163.454 138.942, 179.067 138.723 L 194.915 138.500 195.546 133.463 C 195.893 130.693, 196.025 122.939, 195.839 116.233 C 195.511 104.448, 195.407 103.947, 192.729 101.270 C 190.118 98.660, 189.398 98.488, 180.229 98.296 C 174.878 98.184, 169.040 98.533, 167.255 99.073 M 115.500 106.022 C 102.433 108.645, 93.567 114.819, 87.032 125.846 C 79.298 138.898, 79.735 130.687, 79.928 259.379 C 80.023 322.562, 80.497 376.337, 80.981 378.879 C 82.234 385.452, 87.190 396.578, 91.134 401.667 C 96.066 408.031, 104.789 413.503, 115.834 417.162 L 125.500 420.364 218 421.103 C 268.875 421.510, 327.825 421.483, 349 421.045 L 387.500 420.247 398 416.556 C 414.995 410.581, 423.663 403.651, 432.301 389.129 C 439.732 376.635, 441.108 371.721, 441.727 355.467 L 442.261 341.434 385.881 341.467 C 330.009 341.500, 329.444 341.480, 323.333 339.267 C 305.234 332.715, 291.122 318.845, 284.835 301.432 C 282.171 294.052, 281.302 280.241, 282.967 271.718 C 285.666 257.896, 298.631 239.798, 309.981 234.009 C 321.998 227.880, 327.154 226.843, 350 225.964 C 361.825 225.509, 387.137 225.106, 406.250 225.068 L 441 225 441 212.468 C 441 202.420, 440.587 198.705, 438.915 193.718 C 431.509 171.637, 417.613 158.970, 397.500 155.968 C 391.506 155.073, 355.398 154.865, 253.500 155.137 L 117.500 155.500 112.500 152.840 C 109.750 151.377, 106.037 148.736, 104.250 146.971 C 101.595 144.351, 101 142.983, 101 139.509 C 101 135.765, 101.526 134.770, 105.386 131.212 C 107.798 128.989, 111.150 126.456, 112.836 125.585 C 117.612 123.115, 127.834 121.031, 135.250 121.015 L 142 121 142 113 L 142 105 130.750 105.110 C 124.563 105.170, 117.700 105.580, 115.500 106.022 M 399.898 105.430 C 399.679 105.647, 399.645 109.686, 399.823 114.406 L 400.147 122.987 405.404 124.515 C 409.290 125.645, 412.245 127.538, 416.729 131.772 C 422.696 137.406, 424.802 140.962, 427.591 150.117 C 428.662 153.631, 429.956 155.367, 433.011 157.389 C 435.218 158.849, 438.207 161.372, 439.653 162.994 C 441.098 164.617, 442.668 165.705, 443.141 165.413 C 444.483 164.584, 444.150 151.962, 442.569 143.696 C 439.960 130.063, 432.759 119.738, 420.500 112.054 C 415.135 108.691, 401.149 104.194, 399.898 105.430 M 400.616 133.305 C 399.137 138.820, 399.715 139.774, 405.250 140.951 C 408.137 141.565, 413.988 143.845, 418.250 146.018 C 422.512 148.190, 426 149.509, 426 148.949 C 426 145.176, 415.289 136.661, 405.874 132.950 L 401.205 131.110 400.616 133.305 M 128.980 135.134 C 125.334 135.884, 124.568 136.493, 125.459 137.933 C 125.836 138.544, 129.513 139, 134.059 139 C 141.199 139, 142 138.808, 142 137.097 C 142 135.527, 141.128 135.132, 137.031 134.847 C 134.297 134.656, 130.675 134.785, 128.980 135.134 M 98.229 165.730 C 95.915 166.551, 93.925 171.673, 94.912 174.269 C 95.928 176.940, 107.969 182.892, 114.037 183.722 C 117.268 184.164, 117.741 183.897, 119.501 180.628 C 121.410 177.083, 121.409 177.025, 119.428 174.372 C 118.039 172.510, 114.694 170.715, 108.464 168.486 C 103.534 166.722, 98.928 165.482, 98.229 165.730 M 132.716 174.904 C 130.485 178.680, 130.551 180.551, 133 183 C 134.701 184.701, 136.333 185, 143.927 185 C 152.381 185, 152.965 184.860, 154.927 182.365 C 157.404 179.217, 157.532 177.204, 155.443 174.223 C 154.016 172.185, 153.078 172, 144.159 172 C 134.482 172, 134.422 172.015, 132.716 174.904 M 170.072 174.153 C 167.510 176.903, 167.398 181.145, 169.829 183.345 C 171.261 184.641, 173.722 185, 181.171 185 L 190.685 185 192.584 181.475 C 194.321 178.249, 194.352 177.718, 192.955 175.225 C 191.478 172.589, 191.115 172.491, 181.786 172.215 C 172.913 171.952, 171.979 172.107, 170.072 174.153 M 206.557 174.223 C 204.467 177.206, 204.590 181.319, 206.829 183.345 C 208.249 184.630, 210.694 185, 217.772 185 C 226.057 185, 227.028 184.798, 228.443 182.777 C 230.242 180.209, 230.449 176.707, 228.965 173.934 C 228.048 172.222, 226.794 172, 218.022 172 C 208.916 172, 207.987 172.180, 206.557 174.223 M 243.557 174.223 C 241.472 177.199, 241.594 180.278, 243.912 183.139 C 245.710 185.361, 246.375 185.482, 255.162 185.201 C 263.143 184.946, 264.754 184.603, 266.250 182.840 C 268.415 180.289, 268.486 177.139, 266.443 174.223 C 265.013 172.181, 264.083 172, 255 172 C 245.917 172, 244.987 172.181, 243.557 174.223 M 281.655 173.829 C 279.782 175.899, 279.494 180.186, 281.035 183.066 C 281.952 184.779, 283.206 185, 291.996 185 C 300.919 185, 302.128 184.779, 303.961 182.811 C 306.398 180.196, 306.563 177.249, 304.443 174.223 C 303.015 172.183, 302.080 172, 293.098 172 C 284.886 172, 283.044 172.294, 281.655 173.829 M 319.488 174.013 C 317.371 176.352, 317.097 181.207, 318.956 183.447 C 319.976 184.676, 322.502 185, 331.066 185 C 341.114 185, 341.998 184.841, 343.443 182.777 C 344.299 181.555, 345 179.630, 345 178.500 C 345 177.370, 344.299 175.445, 343.443 174.223 C 342.006 172.171, 341.096 172, 331.598 172 C 322.558 172, 321.089 172.244, 319.488 174.013 M 358.655 173.829 C 356.439 176.278, 356.552 181.285, 358.872 183.384 C 360.404 184.771, 362.427 185.026, 370.018 184.789 C 378.810 184.515, 379.397 184.358, 381.335 181.758 C 383.292 179.132, 383.308 178.869, 381.705 175.508 L 380.032 172 370.171 172 C 361.888 172, 360.045 172.293, 358.655 173.829 M 396.073 175.635 C 394.933 177.084, 394 179.164, 394 180.257 C 394 181.395, 397.494 185.824, 402.177 190.622 C 411.122 199.786, 414.408 201.111, 417.443 196.777 C 419.818 193.387, 419.338 190.960, 415.216 185.517 C 411.511 180.626, 401.877 173, 399.402 173 C 398.711 173, 397.212 174.186, 396.073 175.635 M 411 211.393 C 411 213.934, 418.829 215.067, 422 212.985 C 423.333 212.109, 423.333 211.891, 422 211.015 C 419.602 209.441, 411 209.736, 411 211.393 M 329 243.600 C 320.624 245.848, 315.319 248.776, 310.018 254.077 C 291.252 272.843, 295.807 306.558, 318.761 318.792 C 330.380 324.985, 330.568 325, 394.675 325 L 452.930 325 452.715 283.750 L 452.500 242.500 393.500 242.312 C 344.193 242.154, 333.596 242.366, 329 243.600 M 339.500 266.417 C 327.147 271.931, 325.582 287.675, 336.367 297.935 C 339.453 300.872, 340.826 301.432, 345.817 301.793 C 352.924 302.307, 358.475 299.866, 362.652 294.389 C 366.639 289.163, 367.193 279.894, 363.872 273.986 C 359.439 266.099, 348.102 262.578, 339.500 266.417 M 411.557 356.223 C 410.596 357.594, 410 360.597, 410 364.068 C 410 370.588, 411.824 373, 416.756 373 C 421.200 373, 424 369.111, 424 362.938 C 424 358.951, 423.557 357.797, 421.365 356.073 C 417.862 353.317, 413.545 353.383, 411.557 356.223 M 400.732 384.289 C 397.010 387.705, 393.973 391.288, 393.982 392.250 C 394.011 395.114, 397.687 398, 401.306 398 C 406.877 398, 414.977 390.535, 414.993 385.385 C 415.002 382.631, 411.326 377.989, 409.177 378.039 C 408.255 378.061, 404.455 380.874, 400.732 384.289 M 99.050 380.906 C 96.661 385.371, 97.758 389.134, 102.889 394.080 C 108.996 399.966, 113.162 401.136, 116.582 397.923 C 120.957 393.813, 119.790 391.856, 108.500 384.361 C 105.200 382.170, 101.960 380.055, 101.300 379.661 C 100.600 379.243, 99.663 379.761, 99.050 380.906 M 139.519 392.927 C 133.125 393.452, 132.462 393.719, 131.626 396.110 C 130.263 400.006, 131.624 403.903, 134.778 405.130 C 136.403 405.762, 140.524 405.936, 145 405.563 C 150.877 405.072, 152.879 404.487, 154.250 402.858 C 157.951 398.460, 154.841 391.818, 149.250 392.177 C 147.738 392.274, 143.359 392.611, 139.519 392.927 M 169.643 394.088 C 166.844 396.355, 167.006 401.777, 169.944 404.156 C 171.744 405.614, 173.943 406, 180.436 406 C 187.730 406, 188.895 405.741, 190.826 403.686 C 193.325 401.025, 193.633 397.248, 191.580 394.441 C 190.351 392.762, 188.907 392.499, 180.889 392.494 C 173.874 392.489, 171.139 392.877, 169.643 394.088 M 206.073 394.635 C 203.351 398.095, 203.456 400.547, 206.455 403.545 C 208.670 405.761, 209.726 406, 217.280 406 C 224.738 406, 225.889 405.747, 227.826 403.686 C 230.382 400.964, 230.620 397.330, 228.443 394.223 C 227.023 392.195, 226.066 392, 217.516 392 C 208.584 392, 208.048 392.123, 206.073 394.635 M 243.557 394.223 C 241.318 397.419, 241.636 400.727, 244.455 403.545 C 246.654 405.745, 247.746 406, 254.955 406 C 264.173 406, 267 404.342, 267 398.934 C 267 392.585, 265.990 392, 255.022 392 C 245.916 392, 244.987 392.180, 243.557 394.223 M 281.655 393.829 C 279.390 396.332, 279.576 401.168, 282.039 403.811 C 283.838 405.743, 285.113 406, 292.884 406 C 303.079 406, 305.400 404.578, 305.400 398.333 C 305.400 393.032, 303.292 392, 292.464 392 C 284.866 392, 283.029 392.311, 281.655 393.829 M 320.005 394.721 C 317.350 398.096, 317.476 400.567, 320.455 403.545 C 322.712 405.803, 323.663 406, 332.300 406 C 343.054 406, 345 404.896, 345 398.794 C 345 393.462, 343.203 392.581, 331.883 392.362 C 322.387 392.179, 321.934 392.269, 320.005 394.721 M 359.035 394.934 C 357.378 398.031, 357.832 401.832, 360.133 404.133 C 362.076 406.076, 363.028 406.218, 370.845 405.730 C 378.115 405.277, 379.697 404.858, 381.212 402.987 C 383.410 400.272, 383.474 398.122, 381.443 395.223 C 380.013 393.180, 379.084 393, 369.978 393 C 361.206 393, 359.952 393.222, 359.035 394.934" stroke="none" fill="#ffffff" fill-rule="evenodd"/><path d="M 95 12.564 C 74.716 17.213, 63.118 23.036, 48.143 36.089 C 30.275 51.664, 18.047 72.410, 12.829 96 L 10.507 106.500 10.218 256 L 9.930 405.500 12.538 417.289 C 18.025 442.097, 27.117 458.238, 45.626 476.031 C 65.966 495.586, 85.222 503.102, 120 505.062 C 147.248 506.598, 407.023 505.756, 416.880 504.100 C 434.839 501.082, 453.844 493.494, 466 484.488 C 492.863 464.585, 507.776 438.796, 511.971 404.996 C 513.577 392.058, 513.615 130.811, 512.014 115.825 C 509.334 90.749, 501.135 68.471, 488.880 52.967 C 473.490 33.497, 458.310 22.475, 437.500 15.661 C 419.790 9.862, 428.743 10.140, 260.500 10.149 L 105.500 10.158 95 12.564 M 348.768 62.078 L 345.690 65.156 346.345 83.238 C 346.705 93.184, 347 109.779, 347 120.116 L 347 138.912 363.997 138.706 L 380.993 138.500 380.997 102.700 C 381 63.866, 380.839 62.615, 375.528 60.195 C 374.025 59.510, 368.410 59, 362.376 59 C 351.950 59, 351.816 59.030, 348.768 62.078 M 289.400 72.428 C 287.694 73.170, 285.931 74.615, 285.482 75.639 C 284.326 78.268, 283.643 114.122, 284.489 127.672 L 285.197 139 301.599 139 L 318 139 318 107.539 C 318 70.406, 318.745 72.695, 306.315 71.644 C 295.726 70.749, 292.963 70.877, 289.400 72.428 M 225.628 88.469 L 222.964 90.938 223.232 114.719 L 223.500 138.500 239.947 138.219 C 248.993 138.065, 256.643 137.691, 256.947 137.388 C 257.251 137.085, 257.643 126.819, 257.817 114.575 L 258.134 92.313 255.478 89.157 L 252.822 86 240.557 86 C 228.901 86, 228.160 86.123, 225.628 88.469 M 167.255 99.073 C 161.276 100.882, 160.611 103.211, 161.335 119.808 C 161.687 127.889, 162.255 135.500, 162.597 136.723 C 163.210 138.913, 163.454 138.942, 179.067 138.723 L 194.915 138.500 195.546 133.463 C 195.893 130.693, 196.025 122.939, 195.839 116.233 C 195.511 104.448, 195.407 103.947, 192.729 101.270 C 190.118 98.660, 189.398 98.488, 180.229 98.296 C 174.878 98.184, 169.040 98.533, 167.255 99.073 M 115.500 106.022 C 102.433 108.645, 93.567 114.819, 87.032 125.846 C 79.298 138.898, 79.735 130.687, 79.928 259.379 C 80.023 322.562, 80.497 376.337, 80.981 378.879 C 82.234 385.452, 87.190 396.578, 91.134 401.667 C 96.066 408.031, 104.789 413.503, 115.834 417.162 L 125.500 420.364 218 421.103 C 268.875 421.510, 327.825 421.483, 349 421.045 L 387.500 420.247 398 416.556 C 414.995 410.581, 423.663 403.651, 432.301 389.129 C 439.732 376.635, 441.108 371.721, 441.727 355.467 L 442.261 341.434 385.881 341.467 C 330.009 341.500, 329.444 341.480, 323.333 339.267 C 305.234 332.715, 291.122 318.845, 284.835 301.432 C 282.171 294.052, 281.302 280.241, 282.967 271.718 C 285.666 257.896, 298.631 239.798, 309.981 234.009 C 321.998 227.880, 327.154 226.843, 350 225.964 C 361.825 225.509, 387.137 225.106, 406.250 225.068 L 441 225 441 212.468 C 441 202.420, 440.587 198.705, 438.915 193.718 C 431.509 171.637, 417.613 158.970, 397.500 155.968 C 391.506 155.073, 355.398 154.865, 253.500 155.137 L 117.500 155.500 112.500 152.840 C 109.750 151.377, 106.037 148.736, 104.250 146.971 C 101.595 144.351, 101 142.983, 101 139.509 C 101 135.765, 101.526 134.770, 105.386 131.212 C 107.798 128.989, 111.150 126.456, 112.836 125.585 C 117.612 123.115, 127.834 121.031, 135.250 121.015 L 142 121 142 113 L 142 105 130.750 105.110 C 124.563 105.170, 117.700 105.580, 115.500 106.022 M 399.898 105.430 C 399.679 105.647, 399.645 109.686, 399.823 114.406 L 400.147 122.987 405.404 124.515 C 409.290 125.645, 412.245 127.538, 416.729 131.772 C 422.696 137.406, 424.802 140.962, 427.591 150.117 C 428.662 153.631, 429.956 155.367, 433.011 157.389 C 435.218 158.849, 438.207 161.372, 439.653 162.994 C 441.098 164.617, 442.668 165.705, 443.141 165.413 C 444.483 164.584, 444.150 151.962, 442.569 143.696 C 439.960 130.063, 432.759 119.738, 420.500 112.054 C 415.135 108.691, 401.149 104.194, 399.898 105.430 M 400.616 133.305 C 399.137 138.820, 399.715 139.774, 405.250 140.951 C 408.137 141.565, 413.988 143.845, 418.250 146.018 C 422.512 148.190, 426 149.509, 426 148.949 C 426 145.176, 415.289 136.661, 405.874 132.950 L 401.205 131.110 400.616 133.305 M 128.980 135.134 C 125.334 135.884, 124.568 136.493, 125.459 137.933 C 125.836 138.544, 129.513 139, 134.059 139 C 141.199 139, 142 138.808, 142 137.097 C 142 135.527, 141.128 135.132, 137.031 134.847 C 134.297 134.656, 130.675 134.785, 128.980 135.134 M 98.229 165.730 C 95.915 166.551, 93.925 171.673, 94.912 174.269 C 95.928 176.940, 107.969 182.892, 114.037 183.722 C 117.268 184.164, 117.741 183.897, 119.501 180.628 C 121.410 177.083, 121.409 177.025, 119.428 174.372 C 118.039 172.510, 114.694 170.715, 108.464 168.486 C 103.534 166.722, 98.928 165.482, 98.229 165.730 M 132.716 174.904 C 130.485 178.680, 130.551 180.551, 133 183 C 134.701 184.701, 136.333 185, 143.927 185 C 152.381 185, 152.965 184.860, 154.927 182.365 C 157.404 179.217, 157.532 177.204, 155.443 174.223 C 154.016 172.185, 153.078 172, 144.159 172 C 134.482 172, 134.422 172.015, 132.716 174.904 M 170.072 174.153 C 167.510 176.903, 167.398 181.145, 169.829 183.345 C 171.261 184.641, 173.722 185, 181.171 185 L 190.685 185 192.584 181.475 C 194.321 178.249, 194.352 177.718, 192.955 175.225 C 191.478 172.589, 191.115 172.491, 181.786 172.215 C 172.913 171.952, 171.979 172.107, 170.072 174.153 M 206.557 174.223 C 204.467 177.206, 204.590 181.319, 206.829 183.345 C 208.249 184.630, 210.694 185, 217.772 185 C 226.057 185, 227.028 184.798, 228.443 182.777 C 230.242 180.209, 230.449 176.707, 228.965 173.934 C 228.048 172.222, 226.794 172, 218.022 172 C 208.916 172, 207.987 172.180, 206.557 174.223 M 243.557 174.223 C 241.472 177.199, 241.594 180.278, 243.912 183.139 C 245.710 185.361, 246.375 185.482, 255.162 185.201 C 263.143 184.946, 264.754 184.603, 266.250 182.840 C 268.415 180.289, 268.486 177.139, 266.443 174.223 C 265.013 172.181, 264.083 172, 255 172 C 245.917 172, 244.987 172.181, 243.557 174.223 M 281.655 173.829 C 279.782 175.899, 279.494 180.186, 281.035 183.066 C 281.952 184.779, 283.206 185, 291.996 185 C 300.919 185, 302.128 184.779, 303.961 182.811 C 306.398 180.196, 306.563 177.249, 304.443 174.223 C 303.015 172.183, 302.080 172, 293.098 172 C 284.886 172, 283.044 172.294, 281.655 173.829 M 319.488 174.013 C 317.371 176.352, 317.097 181.207, 318.956 183.447 C 319.976 184.676, 322.502 185, 331.066 185 C 341.114 185, 341.998 184.841, 343.443 182.777 C 344.299 181.555, 345 179.630, 345 178.500 C 345 177.370, 344.299 175.445, 343.443 174.223 C 342.006 172.171, 341.096 172, 331.598 172 C 322.558 172, 321.089 172.244, 319.488 174.013 M 358.655 173.829 C 356.439 176.278, 356.552 181.285, 358.872 183.384 C 360.404 184.771, 362.427 185.026, 370.018 184.789 C 378.810 184.515, 379.397 184.358, 381.335 181.758 C 383.292 179.132, 383.308 178.869, 381.705 175.508 L 380.032 172 370.171 172 C 361.888 172, 360.045 172.293, 358.655 173.829 M 396.073 175.635 C 394.933 177.084, 394 179.164, 394 180.257 C 394 181.395, 397.494 185.824, 402.177 190.622 C 411.122 199.786, 414.408 201.111, 417.443 196.777 C 419.818 193.387, 419.338 190.960, 415.216 185.517 C 411.511 180.626, 401.877 173, 399.402 173 C 398.711 173, 397.212 174.186, 396.073 175.635 M 411 211.393 C 411 213.934, 418.829 215.067, 422 212.985 C 423.333 212.109, 423.333 211.891, 422 211.015 C 419.602 209.441, 411 209.736, 411 211.393 M 329 243.600 C 320.624 245.848, 315.319 248.776, 310.018 254.077 C 291.252 272.843, 295.807 306.558, 318.761 318.792 C 330.380 324.985, 330.568 325, 394.675 325 L 452.930 325 452.715 283.750 L 452.500 242.500 393.500 242.312 C 344.193 242.154, 333.596 242.366, 329 243.600 M 339.500 266.417 C 327.147 271.931, 325.582 287.675, 336.367 297.935 C 339.453 300.872, 340.826 301.432, 345.817 301.793 C 352.924 302.307, 358.475 299.866, 362.652 294.389 C 366.639 289.163, 367.193 279.894, 363.872 273.986 C 359.439 266.099, 348.102 262.578, 339.500 266.417 M 411.557 356.223 C 410.596 357.594, 410 360.597, 410 364.068 C 410 370.588, 411.824 373, 416.756 373 C 421.200 373, 424 369.111, 424 362.938 C 424 358.951, 423.557 357.797, 421.365 356.073 C 417.862 353.317, 413.545 353.383, 411.557 356.223 M 400.732 384.289 C 397.010 387.705, 393.973 391.288, 393.982 392.250 C 394.011 395.114, 397.687 398, 401.306 398 C 406.877 398, 414.977 390.535, 414.993 385.385 C 415.002 382.631, 411.326 377.989, 409.177 378.039 C 408.255 378.061, 404.455 380.874, 400.732 384.289 M 99.050 380.906 C 96.661 385.371, 97.758 389.134, 102.889 394.080 C 108.996 399.966, 113.162 401.136, 116.582 397.923 C 120.957 393.813, 119.790 391.856, 108.500 384.361 C 105.200 382.170, 101.960 380.055, 101.300 379.661 C 100.600 379.243, 99.663 379.761, 99.050 380.906 M 139.519 392.927 C 133.125 393.452, 132.462 393.719, 131.626 396.110 C 130.263 400.006, 131.624 403.903, 134.778 405.130 C 136.403 405.762, 140.524 405.936, 145 405.563 C 150.877 405.072, 152.879 404.487, 154.250 402.858 C 157.951 398.460, 154.841 391.818, 149.250 392.177 C 147.738 392.274, 143.359 392.611, 139.519 392.927 M 169.643 394.088 C 166.844 396.355, 167.006 401.777, 169.944 404.156 C 171.744 405.614, 173.943 406, 180.436 406 C 187.730 406, 188.895 405.741, 190.826 403.686 C 193.325 401.025, 193.633 397.248, 191.580 394.441 C 190.351 392.762, 188.907 392.499, 180.889 392.494 C 173.874 392.489, 171.139 392.877, 169.643 394.088 M 206.073 394.635 C 203.351 398.095, 203.456 400.547, 206.455 403.545 C 208.670 405.761, 209.726 406, 217.280 406 C 224.738 406, 225.889 405.747, 227.826 403.686 C 230.382 400.964, 230.620 397.330, 228.443 394.223 C 227.023 392.195, 226.066 392, 217.516 392 C 208.584 392, 208.048 392.123, 206.073 394.635 M 243.557 394.223 C 241.318 397.419, 241.636 400.727, 244.455 403.545 C 246.654 405.745, 247.746 406, 254.955 406 C 264.173 406, 267 404.342, 267 398.934 C 267 392.585, 265.990 392, 255.022 392 C 245.916 392, 244.987 392.180, 243.557 394.223 M 281.655 393.829 C 279.390 396.332, 279.576 401.168, 282.039 403.811 C 283.838 405.743, 285.113 406, 292.884 406 C 303.079 406, 305.400 404.578, 305.400 398.333 C 305.400 393.032, 303.292 392, 292.464 392 C 284.866 392, 283.029 392.311, 281.655 393.829 M 320.005 394.721 C 317.350 398.096, 317.476 400.567, 320.455 403.545 C 322.712 405.803, 323.663 406, 332.300 406 C 343.054 406, 345 404.896, 345 398.794 C 345 393.462, 343.203 392.581, 331.883 392.362 C 322.387 392.179, 321.934 392.269, 320.005 394.721 M 359.035 394.934 C 357.378 398.031, 357.832 401.832, 360.133 404.133 C 362.076 406.076, 363.028 406.218, 370.845 405.730 C 378.115 405.277, 379.697 404.858, 381.212 402.987 C 383.410 400.272, 383.474 398.122, 381.443 395.223 C 380.013 393.180, 379.084 393, 369.978 393 C 361.206 393, 359.952 393.222, 359.035 394.934" stroke="none" fill="#5771f0" fill-rule="evenodd"/></svg>